<svg width="1060" height="731" viewBox="0 0 1060 731" fill="none" xmlns="http://www.w3.org/2000/svg">
<path d="M0 300C0 134.315 134.315 0 300 0H760C925.685 0 1060 134.315 1060 300V343H0V300Z" fill="#FFFF00"/>
<path d="M0 537H1060V537C1060 644.143 973.143 731 866 731H194C86.8568 731 0 644.143 0 537V537Z" fill="#FF0000"/>
<rect y="343" width="1060" height="194" fill="#0000FF"/>
<g filter="url(#filter0_d_411_10)">
<path d="M304 171C304 115.772 348.772 71 404 71H599C709.457 71 799 160.543 799 271V528C799 610.843 731.843 678 649 678H354C326.386 678 304 655.614 304 628V171Z" fill="url(#paint0_angular_411_10)" shape-rendering="crispEdges"/>
</g>
<g filter="url(#filter1_d_411_10)">
<path d="M660.524 496.67C664.908 490.482 674.092 490.482 678.476 496.67L755.497 605.391C760.657 612.676 755.448 622.75 746.521 622.75H592.479C583.552 622.75 578.343 612.676 583.503 605.391L660.524 496.67Z" fill="url(#paint1_diamond_411_10)" shape-rendering="crispEdges"/>
</g>
<path d="M479 189.5L468 182H458M483 186L477 180L470.5 175.5L460.5 171M468 167L460.5 161.5L464 153.5L470.5 150M477 171L483 167L477 161.5L483 153.5M600.5 175.5L615 180L623.5 175.5M607 195L615 203L623.5 208.5L632.5 218L643.5 221M650.5 218L660.5 221L666 226M643.5 211H655.5L666 218M643.5 205.5L655.5 203L666 208.5" stroke="black"/>
<path d="M598 170L607.5 167L619.5 163.5" stroke="black"/>
<path d="M513.5 171L503 159.5L500.5 147.5L503 138V132.5L510 129C510.333 128.167 511.5 126.2 513.5 125C515.5 123.8 520 119.167 522 117V110.5M506 171L503 166.5L497.5 159.5L495.5 149.5V140.5L497.5 129L506 121L510 117L516 110.5M570 163.5L586 143.5L595.5 138M579.5 163.5L586 155.5L595.5 147.5L606.5 140.5" stroke="black"/>
<path d="M407 589.5L387 605.5L369 620.5L357.5 633L346.5 644.5L343 651L352 655.5L364.5 658.5L376.5 664.5L390 669L376.5 673L361 676.5H352" stroke="black"/>
<path d="M477 567.5L470 575.5V587V603L467 616L464.5 630.5L461 643.5V653.5L458.5 663.5L455.5 675" stroke="black"/>
<path d="M430 546L419.5 551L405 556L392.5 562L380 567L368 573L356.5 578L345.5 583.5L333.5 588L323 593.5H315L309 598.5L305 604" stroke="black"/>
<path d="M558 599.5L551.5 609L544 619.5C543.167 621.5 541.1 625.9 539.5 627.5C537.9 629.1 533.833 634.5 532 637L527.5 644.5L521 655L515.5 664.5L509.5 672V677" stroke="black"/>
<path d="M655.5 449H662.5L666.5 455.5L673 466L682 477.5L692.5 488L702 498L709 506L718.5 513.5L728.5 520.5L737.5 524.5L751 529.5L761.5 535L774.5 541L785 544.5L794.5 547.5L797 550" stroke="black"/>
<path d="M448 501.5L453 498L460 493L466 498L472.5 501.5L475.5 494.5L479 488" stroke="black"/>
<path d="M476.5 560.5L471 558H463L452 560.5H442H434L431.5 550.5L434 537.5V529V518.5V511V502L436.5 497L442 500L452 505.5L457.5 508.5L463 513.5L468.5 516.5L474 521.5L482.5 526" stroke="black"/>
<path d="M515 564L517 570.5L524 577.5L530.5 584L538.5 589L548.5 594L557.5 595.5L564 589L568 584" stroke="black"/>
<path d="M483 527.5L480.5 534L478 543.5V552L476.5 561.5L478 564L484.5 566.5H491L495 564L504.5 566.5L510 564H513.5L516 561.5L513.5 555V547V538.5L513 533L511.5 527.5" stroke="black"/>
<path d="M632.5 437L626 443L619 448.5L613 453.5L605 459.5L592.5 467.5L578.5 476.5L560.5 485.5L550 489L544 493L536.5 496.5L524 501H520.5L518.5 499L513.5 495L505 496.5L500 495L493.5 489L487.5 483L486 478V473.5L479.5 469.5L478.5 477.5V483L479.5 489V493L481 499V504.5L483.5 509V515.5V521V525L486 528.5L489 531H493.5H500L507 527.5L513.5 525L520.5 521H526L533.5 520L538.5 518L544 515.5L547.5 514L551.5 512.5L557 528.5L559.5 538L562 547.5L564 554.5L566 563L568 572L569.5 578.5L568 586.5L572 578.5L575 575L578.5 569.5L587 557L596 543.5L602 538L605 531L610 525L613 518L620 511.5L624 504.5L629 499L632.5 493L637 487L642 481.5L646.5 475L650 469.5L653 465L654.5 459.5V453.5L650 438.5L643.5 430.5L640 427.5" stroke="black"/>
<path d="M673.5 339.5V335.5L671.5 332V329L670 325.5L671.5 323L673.5 320.5L671.5 318.5L670 317" stroke="black"/>
<path d="M663.5 318.5L667 315L670.5 311.5L674.5 310H678.5L682 313.5L683.5 320V325.5L682 332.5L680 337L677 341.5L674.5 345.5L673 350L670.5 355.5L667 357.5H663.5L662.25 355.5M661 353.5L662.25 355.5M662.25 355.5L659 362C658.5 362.5 657.2 363.5 656 363.5C654.8 363.5 652.167 363.5 651 363.5" stroke="black"/>
<path d="M663 319L661 323L659.5 329L657.5 332V336V341.5L655 344.5L652 349L650 351.5L648 355.5L650 357.5H652L657.5 355.5V351.5L659.5 347.5L658.5 343.5L661 341.5L664.5 343.5V341.5L663 336L661 333.5L662.5 331V329" stroke="black"/>
<path d="M494.5 315.5L492.5 318L490.5 322L489 326L487 328.5L486 334.5L484 338L482 341.5L480.5 345.5L479 348L477.5 352.5L479 359L480.5 362.5L482 359L484 356H487L489 359L490.5 362.5V365L498 367H502L505 361L507 358L511.5 356H516H520L523.5 358L527 359V362.5L529 367H532.5L535 365L536.5 361.5V358L537.5 354.5V350L536.5 343.5L535 338V333L532.5 326V320L529 312.5V309M474.5 412V414.5L480.5 417.5L484 419L489 420.5H495.5L502 422L513 420.5H520H527L535 419L542.5 417.5L547 416L551 413.5M498 287.5L492.5 284H482L473 282.5H466L458.5 281.5L452 284L449.5 287.5L446 292.5L442.5 296.5L440 298L442.5 292.5L445 288.5L447 285L451 280.5L454 276.5L461.5 275H468C469.667 275 473.3 275 474.5 275C475.7 275 481.333 274 484 273.5L490.5 275L495.5 278L498 281.5L502 285V288.5V292.5H498V287.5ZM532.5 285V280.5V275L537.5 273.5H547H555.5H565H576L585 272.5L592.5 275L600 280.5L605.5 285L607 290.5L605 295.5L600 292.5L596 288.5L589 285L582.5 282.5L576 281.5H566.5L557 280.5L553 282.5L549.5 285H545H537.5H532.5ZM473 407.5L474.5 405L477.5 402L482 399.5L487 398L490.5 396H495.5L498 398H502H505L509.5 396L513 394L516.5 393L521.5 396L527 398L531 399.5L536.5 402H541L545 403.5H549.5L554.5 406L553 409L551.5 412H549.5H545L537.5 409H531L525.5 407.5H520H514.5H509.5H502L498 406H492.5L487 407.5L484 409H479L474.5 410.5L473 407.5Z" stroke="black"/>
<path d="M563.5 295H561.5L560 292.5H561.5H563.5V295Z" stroke="black"/>
<path d="M557 292L556 295.5V298.5L557 300.5L559.5 302.5H562.5H566H569.5L572 300.5L574 297.5V295.5V293.5L573 291.5" stroke="black"/>
<path d="M465.5 295.5H468V293.5H465.5" stroke="black"/>
<path d="M480 293V299L478 302.5L475 304H470.5H466.5L463.5 301L461.5 299L459.5 296.5V294.5" stroke="black"/>
<path d="M535.5 298.5L538.5 295.5L541.5 293L546 291.5H551L555 290L560 288.5H564.5H568H572L576.5 290L580 291.5L584.5 293L588.5 295.5L592 297.5L594.5 300L596.5 302.5H594.5H592L588.5 304.5L584.5 307L580 309L574.5 310L570 312H563.5H558L552.5 309L546 307L541.5 304.5L540 302.5L538.5 300H535.5M489.5 295.5L485.5 293L481 291.5H478L474.5 290H470L465 291.5L460.5 293L456 295.5L453.5 297.5L450 300L448 302.5L446 304.5L451.5 302.5L455 305L458.5 307L464 309L469 310H474.5L481 307H485.5L489.5 305L492.5 302.5H495.5V300L492 298.5L489.5 295.5Z" stroke="black"/>
<path d="M433 311V299L435.5 292.5V286.5V281L438 271.5V264V256.5V251L440.5 245.5V235L443.5 228L446.5 220L450.5 213.5L456 209L460 203L466.5 198.5L475 194L484 192.5L489 190H496.5L501.5 186.5H509.5H514H521.5H528L534.5 184L542 181H547.5L554 184H561.5H570.5L578 186.5L586 190L592.5 194L599 198.5L603.5 206.5L608 211L612 216L614.5 223L617.5 228L623 235L626 240L623 245.5V251V256.5L626 264L628.5 271.5L631.5 277.5L639 292.5L644.5 299L648 305V314L653.5 311L660 309L665 305L672.5 303H678.5H684.5V307L687 311V317.5V324V329.5L684.5 337L681.5 343L678.5 348.5L675 354.5L672.5 361.5L668 367.5L663.5 373L658.5 378.5L653.5 381.5H648L644.5 384L642 388V399.5L639 408.5V419V428L631.5 436.5L623 440.5L612 447L599 452.5L586 456.5L578 459.5L566 465.5L551 476L542 480.5L524.5 483.5H509.5L496.5 480.5L489 476L482 470L475 465.5L470 459.5L464 452.5L460 444L454.5 436.5L450.5 428L446.5 419L443.5 408.5L440.5 399.5V392V384L438 378.5V373V367.5V361.5L435.5 354.5V348.5V343L433 337V324V311Z" stroke="black"/>
<path d="M684 294.5V303L678 300.5H672L666 303H660.5L654 309L650.5 313.5L648 309L645 303L642.5 294.5L637.5 289L633.5 282.5L629.5 271.5L624.5 262.5L622.5 256L624.5 250.5L627.5 246V239.5L624.5 236L619.5 228V222L614.5 214L608 210.5L602 204L595.5 195.5L585.5 189.5L576 186.5L567.5 184L559.5 186.5L549.5 181.5H542H535L525 186.5H513.5H501.5H493L488.5 193.5H478.5L467.5 195.5L460.5 201L454 208L449.5 214L445.5 222L441.5 230.5V236L437.5 246V257.5L436 269V275.5H432.5L431 266L427 257.5V250.5V239.5L431 230.5L427 218.5V210.5L431 201L436 193.5L437.5 186.5V177L441.5 168L449.5 163.5L454 153.5L458 146V138.5L465 131L467.5 124L488.5 105.5L501.5 98.5L504 105.5L510 101L513.5 95.5H525L530 91.5L538.5 95.5H546.5L552 101L559.5 105.5H567.5H576H585.5L595.5 108.5L602 112H608L614.5 118.5L624.5 126.5L631 136L637.5 146L642.5 153.5L650.5 157L654 163.5H666L672 168L678 177L681 186.5V195.5L684 208L689.5 222L695 233H689.5L684 239.5V246L689.5 250.5V257.5L692 266L695 273.5L692 282.5L689.5 289L684 294.5Z" stroke="black"/>
<path d="M545.5 173.5L540 169.5L534.5 165L531 159L528 149V141L531 133L534.5 129.5L540 123.5L545.5 120.5L554 116" stroke="black"/>
<path d="M552.5 175L545.5 169L541 164.5L535.5 155.5L533 144.5L535.5 138L541 133L545.5 128.5L552.5 126L558 121.5L561 117.5" stroke="black"/>
<defs>
<filter id="filter0_d_411_10" x="300" y="71" width="503" height="615" filterUnits="userSpaceOnUse" color-interpolation-filters="sRGB">
<feFlood flood-opacity="0" result="BackgroundImageFix"/>
<feColorMatrix in="SourceAlpha" type="matrix" values="0 0 0 0 0 0 0 0 0 0 0 0 0 0 0 0 0 0 127 0" result="hardAlpha"/>
<feOffset dy="4"/>
<feGaussianBlur stdDeviation="2"/>
<feComposite in2="hardAlpha" operator="out"/>
<feColorMatrix type="matrix" values="0 0 0 0 0 0 0 0 0 0 0 0 0 0 0 0 0 0 0.25 0"/>
<feBlend mode="normal" in2="BackgroundImageFix" result="effect1_dropShadow_411_10"/>
<feBlend mode="normal" in="SourceGraphic" in2="effect1_dropShadow_411_10" result="shape"/>
</filter>
<filter id="filter1_d_411_10" x="561.46" y="476.029" width="216.08" height="170.721" filterUnits="userSpaceOnUse" color-interpolation-filters="sRGB">
<feFlood flood-opacity="0" result="BackgroundImageFix"/>
<feColorMatrix in="SourceAlpha" type="matrix" values="0 0 0 0 0 0 0 0 0 0 0 0 0 0 0 0 0 0 127 0" result="hardAlpha"/>
<feOffset dy="4"/>
<feGaussianBlur stdDeviation="10"/>
<feComposite in2="hardAlpha" operator="out"/>
<feColorMatrix type="matrix" values="0 0 0 0 0 0 0 0 0 0 0 0 0 0 0 0 0 0 0.25 0"/>
<feBlend mode="normal" in2="BackgroundImageFix" result="effect1_dropShadow_411_10"/>
<feBlend mode="normal" in="SourceGraphic" in2="effect1_dropShadow_411_10" result="shape"/>
</filter>
<radialGradient id="paint0_angular_411_10" cx="0" cy="0" r="1" gradientUnits="userSpaceOnUse" gradientTransform="translate(440 375) rotate(178.903) scale(130.524 299.947)">
<stop offset="0.0113524" stop-color="#716B6B"/>
<stop offset="0.501919" stop-color="white" stop-opacity="0"/>
<stop offset="0.75101" stop-color="#B9B6B6" stop-opacity="0.492654"/>
</radialGradient>
<radialGradient id="paint1_diamond_411_10" cx="0" cy="0" r="1" gradientUnits="userSpaceOnUse" gradientTransform="translate(669.5 576.5) rotate(90) scale(92.5 113.5)">
<stop stop-color="#C4C4C4"/>
<stop offset="1" stop-color="#13368F" stop-opacity="0"/>
</radialGradient>
</defs>
</svg>
