<svg width="503" height="615" viewBox="0 0 503 615" fill="none" xmlns="http://www.w3.org/2000/svg">
<g filter="url(#filter0_d_402_6)">
<rect x="4" width="495" height="607" fill="url(#paint0_angular_402_6)" shape-rendering="crispEdges"/>
</g>
<g filter="url(#filter1_d_402_6)">
<path d="M360.524 425.67C364.908 419.482 374.092 419.482 378.476 425.67L455.497 534.391C460.657 541.676 455.448 551.75 446.521 551.75H292.479C283.552 551.75 278.343 541.676 283.503 534.391L360.524 425.67Z" fill="url(#paint1_diamond_402_6)" shape-rendering="crispEdges"/>
</g>
<path d="M179 118.5L168 111H158M183 115L177 109L170.5 104.5L160.5 100M168 96L160.5 90.5L164 82.5L170.5 79M177 100L183 96L177 90.5L183 82.5M300.5 104.5L315 109L323.5 104.5M307 124L315 132L323.5 137.5L332.5 147L343.5 150M350.5 147L360.5 150L366 155M343.5 140H355.5L366 147M343.5 134.5L355.5 132L366 137.5" stroke="black"/>
<path d="M298 99L307.5 96L319.5 92.5" stroke="black"/>
<path d="M213.5 100L203 88.5L200.5 76.5L203 67V61.5L210 58C210.333 57.1667 211.5 55.2 213.5 54C215.5 52.8 220 48.1667 222 46V39.5M206 100L203 95.5L197.5 88.5L195.5 78.5V69.5L197.5 58L206 50L210 46L216 39.5M270 92.5L286 72.5L295.5 67M279.5 92.5L286 84.5L295.5 76.5L306.5 69.5" stroke="black"/>
<path d="M107 518.5L87 534.5L69 549.5L57.5 562L46.5 573.5L43 580L52 584.5L64.5 587.5L76.5 593.5L90 598L76.5 602L61 605.5H52" stroke="black"/>
<path d="M177 496.5L170 504.5V516V532L167 545L164.5 559.5L161 572.5V582.5L158.5 592.5L155.5 604" stroke="black"/>
<path d="M130 475L119.5 480L105 485L92.5 491L80 496L68 502L56.5 507L45.5 512.5L33.5 517L23 522.5H15L9 527.5L5 533" stroke="black"/>
<path d="M258 528.5L251.5 538L244 548.5C243.167 550.5 241.1 554.9 239.5 556.5C237.9 558.1 233.833 563.5 232 566L227.5 573.5L221 584L215.5 593.5L209.5 601V606" stroke="black"/>
<path d="M355.5 378H362.5L366.5 384.5L373 395L382 406.5L392.5 417L402 427L409 435L418.5 442.5L428.5 449.5L437.5 453.5L451 458.5L461.5 464L474.5 470L485 473.5L494.5 476.5L497 479" stroke="black"/>
<path d="M148 430.5L153 427L160 422L166 427L172.5 430.5L175.5 423.5L179 417" stroke="black"/>
<path d="M176.5 489.5L171 487H163L152 489.5H142H134L131.5 479.5L134 466.5V458V447.5V440V431L136.5 426L142 429L152 434.5L157.5 437.5L163 442.5L168.5 445.5L174 450.5L182.5 455" stroke="black"/>
<path d="M215 493L217 499.5L224 506.5L230.5 513L238.5 518L248.5 523L257.5 524.5L264 518L268 513" stroke="black"/>
<path d="M183 456.5L180.5 463L178 472.5V481L176.5 490.5L178 493L184.5 495.5H191L195 493L204.5 495.5L210 493H213.5L216 490.5L213.5 484V476V467.5L213 462L211.5 456.5" stroke="black"/>
<path d="M332.5 366L326 372L319 377.5L313 382.5L305 388.5L292.5 396.5L278.5 405.5L260.5 414.5L250 418L244 422L236.5 425.5L224 430H220.5L218.5 428L213.5 424L205 425.5L200 424L193.5 418L187.5 412L186 407V402.5L179.5 398.5L178.5 406.5V412L179.5 418V422L181 428V433.5L183.5 438V444.5V450V454L186 457.5L189 460H193.5H200L207 456.5L213.5 454L220.5 450H226L233.5 449L238.5 447L244 444.5L247.5 443L251.5 441.5L257 457.5L259.5 467L262 476.5L264 483.5L266 492L268 501L269.5 507.5L268 515.5L272 507.5L275 504L278.5 498.5L287 486L296 472.5L302 467L305 460L310 454L313 447L320 440.5L324 433.5L329 428L332.5 422L337 416L342 410.5L346.5 404L350 398.5L353 394L354.5 388.5V382.5L350 367.5L343.5 359.5L340 356.5" stroke="black"/>
<path d="M373.5 268.5V264.5L371.5 261V258L370 254.5L371.5 252L373.5 249.5L371.5 247.5L370 246" stroke="black"/>
<path d="M363.5 247.5L367 244L370.5 240.5L374.5 239H378.5L382 242.5L383.5 249V254.5L382 261.5L380 266L377 270.5L374.5 274.5L373 279L370.5 284.5L367 286.5H363.5L362.25 284.5M361 282.5L362.25 284.5M362.25 284.5L359 291C358.5 291.5 357.2 292.5 356 292.5C354.8 292.5 352.167 292.5 351 292.5" stroke="black"/>
<path d="M363 248L361 252L359.5 258L357.5 261V265V270.5L355 273.5L352 278L350 280.5L348 284.5L350 286.5H352L357.5 284.5V280.5L359.5 276.5L358.5 272.5L361 270.5L364.5 272.5V270.5L363 265L361 262.5L362.5 260V258" stroke="black"/>
<path d="M194.5 244.5L192.5 247L190.5 251L189 255L187 257.5L186 263.5L184 267L182 270.5L180.5 274.5L179 277L177.5 281.5L179 288L180.5 291.5L182 288L184 285H187L189 288L190.5 291.5V294L198 296H202L205 290L207 287L211.5 285H216H220L223.5 287L227 288V291.5L229 296H232.5L235 294L236.5 290.5V287L237.5 283.5V279L236.5 272.5L235 267V262L232.5 255V249L229 241.5V238M174.5 341V343.5L180.5 346.5L184 348L189 349.5H195.5L202 351L213 349.5H220H227L235 348L242.5 346.5L247 345L251 342.5M198 216.5L192.5 213H182L173 211.5H166L158.5 210.5L152 213L149.5 216.5L146 221.5L142.5 225.5L140 227L142.5 221.5L145 217.5L147 214L151 209.5L154 205.5L161.5 204H168C169.667 204 173.3 204 174.5 204C175.7 204 181.333 203 184 202.5L190.5 204L195.5 207L198 210.5L202 214V217.5V221.5H198V216.5ZM232.5 214V209.5V204L237.5 202.5H247H255.5H265H276L285 201.5L292.5 204L300 209.5L305.5 214L307 219.5L305 224.5L300 221.5L296 217.5L289 214L282.5 211.5L276 210.5H266.5L257 209.5L253 211.5L249.5 214H245H237.5H232.5ZM173 336.5L174.5 334L177.5 331L182 328.5L187 327L190.5 325H195.5L198 327H202H205L209.5 325L213 323L216.5 322L221.5 325L227 327L231 328.5L236.5 331H241L245 332.5H249.5L254.5 335L253 338L251.5 341H249.5H245L237.5 338H231L225.5 336.5H220H214.5H209.5H202L198 335H192.5L187 336.5L184 338H179L174.5 339.5L173 336.5Z" stroke="black"/>
<path d="M263.5 224H261.5L260 221.5H261.5H263.5V224Z" stroke="black"/>
<path d="M257 221L256 224.5V227.5L257 229.5L259.5 231.5H262.5H266H269.5L272 229.5L274 226.5V224.5V222.5L273 220.5" stroke="black"/>
<path d="M165.5 224.5H168V222.5H165.5" stroke="black"/>
<path d="M180 222V228L178 231.5L175 233H170.5H166.5L163.5 230L161.5 228L159.5 225.5V223.5" stroke="black"/>
<path d="M235.5 227.5L238.5 224.5L241.5 222L246 220.5H251L255 219L260 217.5H264.5H268H272L276.5 219L280 220.5L284.5 222L288.5 224.5L292 226.5L294.5 229L296.5 231.5H294.5H292L288.5 233.5L284.5 236L280 238L274.5 239L270 241H263.5H258L252.5 238L246 236L241.5 233.5L240 231.5L238.5 229H235.5M189.5 224.5L185.5 222L181 220.5H178L174.5 219H170L165 220.5L160.5 222L156 224.5L153.5 226.5L150 229L148 231.5L146 233.5L151.5 231.5L155 234L158.5 236L164 238L169 239H174.5L181 236H185.5L189.5 234L192.5 231.5H195.5V229L192 227.5L189.5 224.5Z" stroke="black"/>
<path d="M133 240V228L135.5 221.5V215.5V210L138 200.5V193V185.5V180L140.5 174.5V164L143.5 157L146.5 149L150.5 142.5L156 138L160 132L166.5 127.5L175 123L184 121.5L189 119H196.5L201.5 115.5H209.5H214H221.5H228L234.5 113L242 110H247.5L254 113H261.5H270.5L278 115.5L286 119L292.5 123L299 127.5L303.5 135.5L308 140L312 145L314.5 152L317.5 157L323 164L326 169L323 174.5V180V185.5L326 193L328.5 200.5L331.5 206.5L339 221.5L344.5 228L348 234V243L353.5 240L360 238L365 234L372.5 232H378.5H384.5V236L387 240V246.5V253V258.5L384.5 266L381.5 272L378.5 277.5L375 283.5L372.5 290.5L368 296.5L363.5 302L358.5 307.5L353.5 310.5H348L344.5 313L342 317V328.5L339 337.5V348V357L331.5 365.5L323 369.5L312 376L299 381.5L286 385.5L278 388.5L266 394.5L251 405L242 409.5L224.5 412.5H209.5L196.5 409.5L189 405L182 399L175 394.5L170 388.5L164 381.5L160 373L154.5 365.5L150.5 357L146.5 348L143.5 337.5L140.5 328.5V321V313L138 307.5V302V296.5V290.5L135.5 283.5V277.5V272L133 266V253V240Z" stroke="black"/>
<path d="M384 223.5V232L378 229.5H372L366 232H360.5L354 238L350.5 242.5L348 238L345 232L342.5 223.5L337.5 218L333.5 211.5L329.5 200.5L324.5 191.5L322.5 185L324.5 179.5L327.5 175V168.5L324.5 165L319.5 157V151L314.5 143L308 139.5L302 133L295.5 124.5L285.5 118.5L276 115.5L267.5 113L259.5 115.5L249.5 110.5H242H235L225 115.5H213.5H201.5H193L188.5 122.5H178.5L167.5 124.5L160.5 130L154 137L149.5 143L145.5 151L141.5 159.5V165L137.5 175V186.5L136 198V204.5H132.5L131 195L127 186.5V179.5V168.5L131 159.5L127 147.5V139.5L131 130L136 122.5L137.5 115.5V106L141.5 97L149.5 92.5L154 82.5L158 75V67.5L165 60L167.5 53L188.5 34.5L201.5 27.5L204 34.5L210 30L213.5 24.5H225L230 20.5L238.5 24.5H246.5L252 30L259.5 34.5H267.5H276H285.5L295.5 37.5L302 41H308L314.5 47.5L324.5 55.5L331 65L337.5 75L342.5 82.5L350.5 86L354 92.5H366L372 97L378 106L381 115.5V124.5L384 137L389.5 151L395 162H389.5L384 168.5V175L389.5 179.5V186.5L392 195L395 202.5L392 211.5L389.5 218L384 223.5Z" stroke="black"/>
<path d="M245.5 102.5L240 98.5L234.5 94L231 88L228 78V70L231 62L234.5 58.5L240 52.5L245.5 49.5L254 45" stroke="black"/>
<path d="M252.5 104L245.5 98L241 93.5L235.5 84.5L233 73.5L235.5 67L241 62L245.5 57.5L252.5 55L258 50.5L261 46.5" stroke="black"/>
<defs>
<filter id="filter0_d_402_6" x="0" y="0" width="503" height="615" filterUnits="userSpaceOnUse" color-interpolation-filters="sRGB">
<feFlood flood-opacity="0" result="BackgroundImageFix"/>
<feColorMatrix in="SourceAlpha" type="matrix" values="0 0 0 0 0 0 0 0 0 0 0 0 0 0 0 0 0 0 127 0" result="hardAlpha"/>
<feOffset dy="4"/>
<feGaussianBlur stdDeviation="2"/>
<feComposite in2="hardAlpha" operator="out"/>
<feColorMatrix type="matrix" values="0 0 0 0 0 0 0 0 0 0 0 0 0 0 0 0 0 0 0.25 0"/>
<feBlend mode="normal" in2="BackgroundImageFix" result="effect1_dropShadow_402_6"/>
<feBlend mode="normal" in="SourceGraphic" in2="effect1_dropShadow_402_6" result="shape"/>
</filter>
<filter id="filter1_d_402_6" x="261.46" y="405.029" width="216.08" height="170.721" filterUnits="userSpaceOnUse" color-interpolation-filters="sRGB">
<feFlood flood-opacity="0" result="BackgroundImageFix"/>
<feColorMatrix in="SourceAlpha" type="matrix" values="0 0 0 0 0 0 0 0 0 0 0 0 0 0 0 0 0 0 127 0" result="hardAlpha"/>
<feOffset dy="4"/>
<feGaussianBlur stdDeviation="10"/>
<feComposite in2="hardAlpha" operator="out"/>
<feColorMatrix type="matrix" values="0 0 0 0 0 0 0 0 0 0 0 0 0 0 0 0 0 0 0.25 0"/>
<feBlend mode="normal" in2="BackgroundImageFix" result="effect1_dropShadow_402_6"/>
<feBlend mode="normal" in="SourceGraphic" in2="effect1_dropShadow_402_6" result="shape"/>
</filter>
<radialGradient id="paint0_angular_402_6" cx="0" cy="0" r="1" gradientUnits="userSpaceOnUse" gradientTransform="translate(140 304) rotate(178.903) scale(130.524 299.947)">
<stop offset="0.0113524" stop-color="#716B6B"/>
<stop offset="0.501919" stop-color="white" stop-opacity="0"/>
<stop offset="0.75101" stop-color="#B9B6B6" stop-opacity="0.492654"/>
</radialGradient>
<radialGradient id="paint1_diamond_402_6" cx="0" cy="0" r="1" gradientUnits="userSpaceOnUse" gradientTransform="translate(369.5 505.5) rotate(90) scale(92.5 113.5)">
<stop stop-color="#C4C4C4"/>
<stop offset="1" stop-color="#13368F" stop-opacity="0"/>
</radialGradient>
</defs>
</svg>
